<svg width="25" height="25" viewBox="0 0 25 25" fill="none" xmlns="http://www.w3.org/2000/svg">
<g clip-path="url(#clip0_228_11730)">
<rect x="0.931641" y="0.669434" width="23.7956" height="23.7956" rx="11.8978" fill="url(#paint0_linear_228_11730)" fill-opacity="0.8"/>
<path d="M12.8298 2.6524C7.54521 7.16365 4.89795 11.0602 4.89795 14.3519C4.89795 19.2895 8.66558 22.482 12.8298 22.482C16.994 22.482 20.7617 19.2895 20.7617 14.3519C20.7617 11.0602 18.1144 7.16365 12.8298 2.6524ZM8.69533 14.5502C9.06217 14.5502 9.35962 14.808 9.42902 15.1649C9.83553 17.366 11.6896 18.1195 13.038 18.0105C13.4644 17.9906 13.8213 18.3277 13.8213 18.7541C13.8213 19.1507 13.504 19.4779 13.1074 19.4977C10.9956 19.6266 8.52677 18.417 7.96163 15.4128C7.9444 15.3065 7.95046 15.1977 7.9794 15.094C8.00834 14.9902 8.05946 14.894 8.12923 14.812C8.19901 14.73 8.28576 14.6641 8.3835 14.6189C8.48124 14.5737 8.58764 14.5502 8.69533 14.5502V14.5502Z" fill="#F3F7FF"/>
</g>
<defs>
<linearGradient id="paint0_linear_228_11730" x1="12.8294" y1="0.669434" x2="12.8294" y2="24.465" gradientUnits="userSpaceOnUse">
<stop stop-color="#3EAEDE"/>
<stop offset="1" stop-color="#1C86B4"/>
</linearGradient>
<clipPath id="clip0_228_11730">
<rect x="0.931641" y="0.669434" width="23.7956" height="23.7956" rx="11.8978" fill="white"/>
</clipPath>
</defs>
</svg>
