<svg width="113" height="37" viewBox="0 0 113 37" fill="none" xmlns="http://www.w3.org/2000/svg">
<path d="M13.0002 7.16663C7.226 12.0958 4.3335 16.3533 4.3335 19.95C4.3335 25.345 8.45016 28.8333 13.0002 28.8333C17.5502 28.8333 21.6668 25.345 21.6668 19.95C21.6668 16.3533 18.7743 12.0958 13.0002 7.16663ZM8.48266 20.1666C8.8835 20.1666 9.2085 20.4483 9.28433 20.8383C9.7285 23.2433 11.7543 24.0666 13.2277 23.9475C13.6935 23.9258 14.0835 24.2941 14.0835 24.76C14.0835 25.1933 13.7368 25.5508 13.3035 25.5725C10.996 25.7133 8.2985 24.3916 7.681 21.1091C7.66217 20.993 7.6688 20.8741 7.70041 20.7608C7.73203 20.6475 7.78789 20.5423 7.86413 20.4527C7.94036 20.3631 8.03516 20.2911 8.14195 20.2417C8.24875 20.1923 8.365 20.1667 8.48266 20.1666Z" fill="#F3F7FF"/>
<path d="M40.688 36.04V26.728C40.176 27.432 39.4933 28.0507 38.64 28.584C37.808 29.1173 36.72 29.384 35.376 29.384C33.8827 29.384 32.5493 29.0213 31.376 28.296C30.2027 27.5707 29.2747 26.5787 28.592 25.32C27.9093 24.0613 27.568 22.632 27.568 21.032C27.568 19.432 27.9093 18.0133 28.592 16.776C29.2747 15.5173 30.2027 14.536 31.376 13.832C32.5493 13.1067 33.8827 12.744 35.376 12.744C36.5707 12.744 37.616 12.968 38.512 13.416C39.408 13.864 40.1333 14.4933 40.688 15.304L41.136 13.128H44.784V36.04H40.688ZM36.24 25.8C37.5627 25.8 38.64 25.3627 39.472 24.488C40.3253 23.592 40.752 22.4507 40.752 21.064C40.752 19.6773 40.3253 18.5467 39.472 17.672C38.64 16.776 37.5627 16.328 36.24 16.328C34.9387 16.328 33.8613 16.7653 33.008 17.64C32.1547 18.5147 31.728 19.6453 31.728 21.032C31.728 22.4187 32.1547 23.56 33.008 24.456C33.8613 25.352 34.9387 25.8 36.24 25.8ZM54.907 29.384C52.923 29.384 51.387 28.7653 50.299 27.528C49.2323 26.2907 48.699 24.4773 48.699 22.088V13.128H52.763V21.704C52.763 23.0693 53.0403 24.1147 53.595 24.84C54.1497 25.5653 55.0243 25.928 56.219 25.928C57.3497 25.928 58.2777 25.5227 59.003 24.712C59.7497 23.9013 60.123 22.7707 60.123 21.32V13.128H64.219V29H60.603L60.283 26.312C59.7923 27.2507 59.0777 27.9973 58.139 28.552C57.2217 29.1067 56.1443 29.384 54.907 29.384ZM70.6318 10.664C69.8851 10.664 69.2664 10.44 68.7758 9.992C68.3064 9.544 68.0718 8.97867 68.0718 8.296C68.0718 7.61333 68.3064 7.05867 68.7758 6.632C69.2664 6.184 69.8851 5.96 70.6318 5.96C71.3784 5.96 71.9864 6.184 72.4558 6.632C72.9464 7.05867 73.1918 7.61333 73.1918 8.296C73.1918 8.97867 72.9464 9.544 72.4558 9.992C71.9864 10.44 71.3784 10.664 70.6318 10.664ZM68.5838 29V13.128H72.6798V29H68.5838ZM84.731 29.384C83.1097 29.384 81.6803 29.032 80.443 28.328C79.2057 27.624 78.2243 26.6427 77.499 25.384C76.795 24.1253 76.443 22.6853 76.443 21.064C76.443 19.4427 76.795 18.0027 77.499 16.744C78.2243 15.4853 79.2057 14.504 80.443 13.8C81.6803 13.096 83.1097 12.744 84.731 12.744C86.7577 12.744 88.4643 13.2773 89.851 14.344C91.2377 15.3893 92.123 16.84 92.507 18.696H88.187C87.9737 17.928 87.547 17.3307 86.907 16.904C86.2883 16.456 85.5523 16.232 84.699 16.232C83.5683 16.232 82.6083 16.6587 81.819 17.512C81.0297 18.3653 80.635 19.5493 80.635 21.064C80.635 22.5787 81.0297 23.7627 81.819 24.616C82.6083 25.4693 83.5683 25.896 84.699 25.896C85.5523 25.896 86.2883 25.6827 86.907 25.256C87.547 24.8293 87.9737 24.2213 88.187 23.432H92.507C92.123 25.224 91.2377 26.664 89.851 27.752C88.4643 28.84 86.7577 29.384 84.731 29.384ZM101.615 29.384C100.249 29.384 99.1292 29.1707 98.2545 28.744C97.3798 28.296 96.7292 27.7093 96.3025 26.984C95.8758 26.2587 95.6625 25.4587 95.6625 24.584C95.6625 23.112 96.2385 21.9173 97.3905 21C98.5425 20.0827 100.271 19.624 102.575 19.624H106.607V19.24C106.607 18.152 106.297 17.352 105.679 16.84C105.06 16.328 104.292 16.072 103.375 16.072C102.543 16.072 101.817 16.2747 101.199 16.68C100.58 17.064 100.196 17.64 100.047 18.408H96.0465C96.1532 17.256 96.5372 16.2533 97.1985 15.4C97.8812 14.5467 98.7558 13.896 99.8225 13.448C100.889 12.9787 102.084 12.744 103.407 12.744C105.668 12.744 107.449 13.3093 108.751 14.44C110.052 15.5707 110.703 17.1707 110.703 19.24V29H107.215L106.831 26.44C106.361 27.2933 105.7 27.9973 104.847 28.552C104.015 29.1067 102.937 29.384 101.615 29.384ZM102.543 26.184C103.716 26.184 104.623 25.8 105.263 25.032C105.924 24.264 106.34 23.3147 106.511 22.184H103.023C101.935 22.184 101.156 22.3867 100.687 22.792C100.217 23.176 99.9825 23.656 99.9825 24.232C99.9825 24.8507 100.217 25.3307 100.687 25.672C101.156 26.0133 101.775 26.184 102.543 26.184Z" fill="#F3F7FF"/>
</svg>
