<svg width="24" height="24" viewBox="0 0 24 24" fill="none" xmlns="http://www.w3.org/2000/svg">
<path fill-rule="evenodd" clip-rule="evenodd" d="M16.8885 18.3184C16.7165 17.8854 16.4725 17.5074 16.2585 17.1844C16.1505 17.0224 16.0395 16.8574 15.9425 16.6874C15.5535 16.0114 15.6875 15.7374 16.3185 14.6804L16.4205 14.5074C16.9315 13.6464 16.9595 12.8204 16.9855 12.0924C16.9975 11.7344 17.0095 11.3974 17.0785 11.0804C17.2395 10.3484 18.7865 10.1534 19.7455 10.0384C19.9065 10.6674 19.9995 11.3224 19.9995 12.0004C19.9995 14.5694 18.7775 16.8534 16.8885 18.3184ZM4.96151 15.7994C5.59751 15.9614 6.28651 16.0734 6.98751 16.0734C8.06751 16.0734 9.17051 15.8094 10.1245 15.0624C11.8405 13.7204 11.8405 12.0044 11.8405 10.6244C11.8405 9.73237 11.8405 8.96337 12.2125 8.28037C12.4125 7.91437 12.8385 7.66037 13.3315 7.36537C13.6335 7.18437 13.9465 6.99837 14.2465 6.76237C14.8895 6.25937 15.3675 5.61237 15.6635 4.89637C17.0635 5.62137 18.2235 6.74437 18.9895 8.11937C17.5615 8.31737 15.5345 8.78537 15.1255 10.6524C15.0175 11.1464 15.0005 11.6114 14.9875 12.0224C14.9665 12.6054 14.9505 13.0664 14.7005 13.4884L14.6005 13.6564C13.9535 14.7394 13.2215 15.9674 14.2085 17.6844C14.3275 17.8924 14.4605 18.0924 14.5915 18.2914C14.9355 18.8074 15.1045 19.0924 15.1055 19.3724C14.1505 19.7764 13.1005 20.0004 11.9995 20.0004C8.96251 20.0004 6.31651 18.2984 4.96151 15.7994ZM11.9995 4.00037C12.6155 4.00037 13.2105 4.07637 13.7865 4.20837C13.6175 4.58037 13.3565 4.91937 13.0125 5.18837C12.7945 5.36037 12.5495 5.50337 12.3065 5.64837C11.6555 6.03637 10.9185 6.47637 10.4565 7.32237C9.84051 8.45237 9.84051 9.60637 9.84051 10.6244C9.84051 11.9794 9.79651 12.7804 8.89251 13.4874C7.52351 14.5604 5.42851 13.9614 4.13251 13.4164C4.05051 12.9554 3.99951 12.4834 3.99951 12.0004C3.99951 7.58937 7.58851 4.00037 11.9995 4.00037ZM11.9995 2.00037C6.48551 2.00037 1.99951 6.48637 1.99951 12.0004C1.99951 17.5134 6.48551 22.0004 11.9995 22.0004C17.5135 22.0004 21.9995 17.5134 21.9995 12.0004C21.9995 6.48637 17.5135 2.00037 11.9995 2.00037Z" fill="#757D8A"/>
</svg>
