<svg width="25" height="24" viewBox="0 0 25 24" fill="none" xmlns="http://www.w3.org/2000/svg">
<path fill-rule="evenodd" clip-rule="evenodd" d="M10.5 5C11.603 5 12.5 5.897 12.5 7C12.5 8.103 11.603 9 10.5 9C9.397 9 8.5 8.103 8.5 7C8.5 5.897 9.397 5 10.5 5ZM10.5 11C12.706 11 14.5 9.206 14.5 7C14.5 4.794 12.706 3 10.5 3C8.294 3 6.5 4.794 6.5 7C6.5 9.206 8.294 11 10.5 11ZM10.5 13C6.641 13 3.5 16.14 3.5 20C3.5 20.552 3.947 21 4.5 21C5.053 21 5.5 20.552 5.5 20C5.5 17.243 7.743 15 10.5 15C13.257 15 15.5 17.243 15.5 20C15.5 20.552 15.947 21 16.5 21C17.053 21 17.5 20.552 17.5 20C17.5 16.14 14.359 13 10.5 13ZM20.5 6H21.5C22.05 6 22.5 6.45 22.5 7C22.5 7.55 22.05 8 21.5 8H20.5V9C20.5 9.55 20.05 10 19.5 10C18.95 10 18.5 9.55 18.5 9V8H17.5C16.95 8 16.5 7.55 16.5 7C16.5 6.45 16.95 6 17.5 6H18.5V5C18.5 4.45 18.95 4 19.5 4C20.05 4 20.5 4.45 20.5 5V6Z" fill="#4E73F8"/>
</svg>
